<?xml version="1.0" encoding="UTF-8" standalone="no"?>
<svg
   xmlns:dc="http://purl.org/dc/elements/1.1/"
   xmlns:cc="http://creativecommons.org/ns#"
   xmlns:rdf="http://www.w3.org/1999/02/22-rdf-syntax-ns#"
   xmlns:svg="http://www.w3.org/2000/svg"
   xmlns="http://www.w3.org/2000/svg"
   viewBox="0 0 129.46381 34.594803"
   id="svg3363"
   height="34.594803mm"
   width="129.46381mm"
   version="1.0">
  <metadata
     id="metadata3380">
    <rdf:RDF>
      <cc:Work
         rdf:about="">
        <dc:format>image/svg+xml</dc:format>
        <dc:type
           rdf:resource="http://purl.org/dc/dcmitype/StillImage" />
        <dc:title></dc:title>
      </cc:Work>
    </rdf:RDF>
  </metadata>
  <defs
     id="defs3365">
    <pattern
       y="0"
       x="0"
       height="6"
       width="6"
       patternUnits="userSpaceOnUse"
       id="WMFhbasepattern" />
  </defs>
  <path
     id="path3368"
     d="m 15.071485,13.58488 0.21034,0.0081 0.210341,0.0162 0.20224,0.02427 0.20224,0.0405 0.202241,0.04047 0.194169,0.05667 0.186069,0.06477 0.186069,0.07287 0.186069,0.08904 0.177969,0.08907 0.169898,0.09714 0.169898,0.105241 0.153698,0.11334 0.161798,0.12144 0.145627,0.12954 0.145598,0.13764 0.129456,0.145711 0.129427,0.14574 0.121355,0.153811 0.121356,0.161911 0.105156,0.170011 0.09708,0.17001 0.08898,0.178111 0.08091,0.17811 0.08088,0.18621 0.06471,0.19431 0.04854,0.19431 0.04854,0.194282 0.04044,0.20241 0.02427,0.210481 0.01617,0.20241 0,0.210481 0,0.210482 -0.01617,0.210509 -0.02427,0.202382 -0.04044,0.20241 -0.04854,0.202409 -0.04854,0.194282 -0.06471,0.18621 -0.08088,0.186211 -0.08091,0.18621 -0.08898,0.17811 -0.09708,0.170011 -0.105156,0.170011 -0.121356,0.153811 -0.121355,0.161911 -0.129427,0.145739 -0.129456,0.145711 -0.145598,0.12954 -0.145627,0.12954 -0.161798,0.121441 -0.153698,0.12144 -0.169898,0.105241 -0.169898,0.09714 -0.177969,0.08907 -0.186069,0.08097 -0.186069,0.08094 -0.186069,0.06477 -0.194169,0.04857 -0.202241,0.04857 -0.20224,0.0405 -0.20224,0.02427 -0.210341,0.0162 -0.21034,0 -0.21034,0 -0.202241,-0.0162 -0.21034,-0.02427 -0.20224,-0.0405 -0.194169,-0.04857 -0.194169,-0.04857 -0.194141,-0.06477 -0.186069,-0.08094 -0.177969,-0.08097 -0.177998,-0.08907 -0.169869,-0.09714 -0.169898,-0.105241 -0.161798,-0.12144 -0.153698,-0.121441 -0.145627,-0.12954 -0.145627,-0.12954 -0.137526,-0.145711 -0.121356,-0.145739 -0.129427,-0.161911 -0.113256,-0.153811 -0.105184,-0.170011 -0.09706,-0.170011 -0.08898,-0.17811 -0.08901,-0.18621 -0.07278,-0.186211 -0.06474,-0.18621 -0.04854,-0.194282 -0.04851,-0.202409 -0.04047,-0.20241 -0.02427,-0.202382 -0.01617,-0.210509 0,-0.210482 0,-0.210481 0.01617,-0.20241 0.02427,-0.210481 0.04047,-0.20241 0.04851,-0.194282 0.04854,-0.19431 0.06474,-0.19431 0.07278,-0.18621 0.08901,-0.17811 0.08898,-0.178111 0.09706,-0.17001 0.105184,-0.170011 0.113256,-0.161911 0.129427,-0.153811 0.121356,-0.14574 0.137526,-0.145711 0.145627,-0.13764 0.145627,-0.12954 0.153698,-0.12144 0.161798,-0.11334 0.169898,-0.105241 0.169869,-0.09714 0.177998,-0.08907 0.177969,-0.08904 0.186069,-0.07287 0.194141,-0.06477 0.194169,-0.05667 0.194169,-0.04047 0.20224,-0.0405 0.21034,-0.02427 0.202241,-0.0162 0.21034,-0.0081 z"
     style="fill:#000000;fill-opacity:1;fill-rule:evenodd;stroke:none" />
  <path
     id="path3370"
     d="M 12.14295,8.8487956 8.2678693,16.734169 9.9101204,6.7600689 8.4053962,0 12.531259,5.5132958 25.774424,14.183981 25.369915,15.592665 12.14295,8.8487956 Z"
     style="fill:#000000;fill-opacity:1;fill-rule:evenodd;stroke:none" />
  <path
     id="path3372"
     d="m 33.055278,10.273679 -5.096595,5.675207 -8.931233,13.495923 -1.01933,-1.408769 7.523593,-13.9492 7.523565,-3.813161 z"
     style="fill:#000000;fill-opacity:1;fill-rule:evenodd;stroke:none" />
  <path
     id="path3374"
     d="M 0,25.623464 7.1272118,21.624092 19.893054,27.866001 22.182497,34.5694 17.482284,29.9466 6.6498893,23.923329 0,25.623464 Z"
     style="fill:#000000;fill-opacity:1;fill-rule:evenodd;stroke:none" />
  <path
     id="path3376"
     d="m 34.778527,31.727704 0.954475,-2.412435 0.194169,0.12954 0.194169,0.12954 0.21844,0.113171 0.21844,0.121638 0.234527,0.104986 0.250895,0.105269 0.250896,0.09737 0.266982,0.0889 0.274884,0.08918 0.258798,0.07281 0.25908,0.06463 0.250614,0.04854 0.234808,0.04064 0.234527,0.02427 0.226625,0.01609 0.226342,0.0082 0.185984,0 0.186267,-0.01609 0.1778,-0.01637 0.178082,-0.01609 0.169898,-0.03246 0.161713,-0.04036 0.161996,-0.04064 0.153529,-0.04854 0.153811,-0.05673 0.145626,-0.06463 0.145627,-0.06491 0.137442,-0.07281 0.12954,-0.0889 0.129258,-0.08918 0.121356,-0.0889 0.121355,-0.105269 0.113454,-0.105269 0.104986,-0.113453 0.09708,-0.113171 0.08918,-0.113454 0.08072,-0.121355 0.081,-0.12954 0.06463,-0.121638 0.06491,-0.137442 0.05644,-0.12954 0.04854,-0.137725 0.04064,-0.145626 0.03217,-0.145825 0.02427,-0.153811 0.01609,-0.145711 0.0082,-0.161939 0.0082,-0.161911 -0.0082,-0.234781 -0.02427,-0.24288 -0.01609,-0.113341 -0.02427,-0.11334 -0.02427,-0.11334 -0.03245,-0.113341 -0.03217,-0.11334 -0.04064,-0.113341 -0.04036,-0.11334 -0.04854,-0.105241 -0.105269,-0.210509 -0.121356,-0.210482 -0.07281,-0.10524 -0.08072,-0.105269 -0.09708,-0.113341 -0.105269,-0.10524 -0.121356,-0.113341 -0.12954,-0.105241 -0.145626,-0.11334 -0.153529,-0.11334 -0.169898,-0.113341 -0.178082,-0.11334 -0.194169,-0.121441 -0.210256,-0.11334 -0.21844,-0.12144 -0.226624,-0.12144 -0.242711,-0.121441 -0.258798,-0.12144 -1.545167,-0.720541 -0.242711,-0.113341 -0.226342,-0.12144 -0.226624,-0.12144 -0.210256,-0.121441 -0.202353,-0.129511 -0.194169,-0.12954 -0.185985,-0.12954 -0.178082,-0.13764 -0.169898,-0.137612 -0.153529,-0.137639 -0.145626,-0.14574 -0.145627,-0.145711 -0.12954,-0.14574 -0.121355,-0.153811 -0.105269,-0.153811 -0.104987,-0.153839 -0.09708,-0.153812 -0.08918,-0.17001 -0.08072,-0.161911 -0.07281,-0.178111 -0.07281,-0.17001 -0.06491,-0.178111 -0.05644,-0.18621 -0.05673,-0.18621 -0.04036,-0.19431 -0.04064,-0.194282 -0.03217,-0.20241 -0.03246,-0.202381 -0.01609,-0.20241 -0.01609,-0.210481 -0.0082,-0.21861 -0.0082,-0.218581 0.0082,-0.267151 0.01609,-0.25908 0.03246,-0.250981 0.04036,-0.250952 0.05673,-0.24288 0.06463,-0.24288 0.07281,-0.226681 0.0889,-0.226681 0.105269,-0.21861 0.113171,-0.218581 0.121356,-0.210481 0.137724,-0.20241 0.153529,-0.19431 0.153811,-0.194282 0.178083,-0.18621 0.1778,-0.17811 0.194168,-0.170011 0.202354,-0.161911 0.210255,-0.145739 0.210256,-0.13764 0.21844,-0.129512 0.226624,-0.11334 0.234527,-0.105269 0.242711,-0.09714 0.250896,-0.08097 0.250613,-0.07284 0.25908,-0.06477 0.266982,-0.04857 0.274885,-0.0324 0.283351,-0.03237 0.290971,-0.0162 0.291253,-0.0081 0.388338,0.0081 0.380436,0.0081 0.355882,0.02427 0.347698,0.0243 0.331893,0.04047 0.315524,0.0405 0.299156,0.05667 0.283351,0.05667 0.2667,0.07284 0.25908,0.07287 0.234527,0.08907 0.226624,0.08904 0.210256,0.10524 0.194169,0.105269 0.178082,0.121441 0.161713,0.121412 -0.776675,2.283036 -0.137443,-0.09714 -0.153811,-0.08904 -0.178082,-0.09717 -0.194169,-0.08904 -0.202071,-0.08907 -0.226624,-0.08904 -0.242712,-0.09714 -0.266982,-0.08907 -0.258798,-0.08097 -0.266982,-0.07284 -0.250895,-0.05667 -0.250614,-0.0486 -0.250895,-0.04047 -0.242711,-0.03237 -0.234527,-0.0162 -0.234527,0 -0.161995,0 -0.161714,0.0081 -0.153811,0.0162 -0.153529,0.02427 -0.145626,0.0243 -0.145627,0.03237 -0.137442,0.0405 -0.12954,0.04047 -0.12954,0.04857 -0.129258,0.05667 -0.121355,0.06477 -0.113454,0.07287 -0.113171,0.07284 -0.105269,0.08097 -0.09708,0.08097 -0.104987,0.09714 -0.0889,0.09714 -0.08918,0.09717 -0.08072,0.105241 -0.07281,0.105241 -0.07281,0.11334 -0.06491,0.113341 -0.05644,0.11334 -0.04854,0.12144 -0.04854,0.121441 -0.03246,0.12954 -0.03245,0.12954 -0.03217,0.137611 -0.01637,0.13764 -0.01609,0.13764 -0.0082,0.145711 -0.0079,0.14574 0.0079,0.17811 0.01637,0.17811 0.01609,0.178111 0.03245,0.170011 0.04036,0.16191 0.04854,0.161911 0.05673,0.15384 0.06463,0.153811 0.07281,0.153811 0.07281,0.13764 0.0889,0.137639 0.08918,0.129512 0.104986,0.12144 0.105269,0.113341 0.104987,0.11334 0.121356,0.105269 0.137724,0.105241 0.169898,0.12144 0.210255,0.12144 0.234527,0.137612 0.266982,0.153839 0.299438,0.153811 0.331611,0.170011 0.364067,0.17811 1.577622,0.752913 0.234527,0.11334 0.234526,0.121441 0.21844,0.12144 0.21844,0.12954 0.202354,0.12954 0.194169,0.12954 0.185984,0.137611 0.178082,0.13764 0.169898,0.13764 0.153529,0.145711 0.153811,0.14574 0.137442,0.145711 0.12954,0.153811 0.129258,0.15384 0.105269,0.153811 0.105269,0.161911 0.09708,0.161939 0.0889,0.17001 0.0889,0.178111 0.07281,0.17811 0.07281,0.18621 0.06491,0.194282 0.05644,0.19431 0.05673,0.202382 0.04036,0.210509 0.04064,0.210482 0.04036,0.218609 0.02427,0.226681 0.02427,0.226681 0.01609,0.24288 0.0082,0.234781 0,0.250952 -0.0082,0.26718 -0.01609,0.259108 -0.03246,0.25908 -0.04854,0.250895 -0.06463,0.250896 -0.07281,0.242993 -0.0889,0.234809 -0.09708,0.234809 -0.121355,0.226625 -0.12954,0.21844 -0.137442,0.218722 -0.153811,0.210538 -0.169898,0.210537 -0.185985,0.194169 -0.194169,0.202354 -0.210255,0.186266 -0.226625,0.186267 -0.226624,0.169898 -0.242711,0.161995 -0.250613,0.145627 -0.258798,0.137724 -0.266982,0.121356 -0.275167,0.113453 -0.283069,0.09708 -0.299438,0.08918 -0.299155,0.07281 -0.315525,0.06463 -0.323709,0.05673 -0.331611,0.04064 -0.339795,0.03217 -0.34798,0.01637 -0.355883,0.0079 -0.315524,-0.0079 -0.315524,-0.01637 -0.30734,-0.02427 -0.299438,-0.03217 -0.291254,-0.04064 -0.283068,-0.04854 -0.283069,-0.06491 -0.275167,-0.07281 -0.275167,-0.081 -0.258797,-0.0889 -0.258798,-0.09708 -0.250896,-0.105269 -0.250613,-0.121638 -0.242711,-0.121355 -0.234809,-0.137443 -0.226342,-0.145909 z m 16.147344,-18.482846 0.153811,0.0081 0.153529,0.02427 0.145627,0.0324 0.137724,0.04857 0.137442,0.06477 0.12954,0.07287 0.121356,0.09714 0.113171,0.105241 0.105269,0.11334 0.09708,0.121441 0.07281,0.12954 0.06463,0.12954 0.04854,0.137611 0.03246,0.14574 0.02427,0.153811 0.0079,0.153839 -0.0079,0.153811 -0.02427,0.153811 -0.03246,0.14574 -0.04854,0.13764 -0.06463,0.137611 -0.07281,0.121441 -0.09708,0.12144 -0.105269,0.12144 -0.113171,0.105241 -0.121356,0.08907 -0.12954,0.08094 -0.137442,0.06477 -0.137724,0.04857 -0.145627,0.0324 -0.153529,0.02427 -0.153811,0.0081 -0.153529,-0.0081 -0.145626,-0.02427 -0.145627,-0.0324 -0.137725,-0.04857 -0.137442,-0.06477 -0.121355,-0.08094 -0.121356,-0.08907 -0.121355,-0.105241 -0.105269,-0.12144 -0.0889,-0.12144 -0.081,-0.121441 -0.05644,-0.137611 -0.05673,-0.13764 -0.03246,-0.14574 -0.02427,-0.153811 -0.0079,-0.153811 0.0079,-0.161939 0.02427,-0.153811 0.03246,-0.13764 0.04854,-0.145711 0.06463,-0.12954 0.07281,-0.12954 0.09708,-0.12144 0.105269,-0.113341 0.113171,-0.10524 0.121355,-0.08904 0.121356,-0.08097 0.137724,-0.05667 0.137442,-0.04857 0.145627,-0.0324 0.153811,-0.02427 0.153529,-0.0081 z m -1.367084,19.357171 0,-11.94943 -1.92532,0 0,-2.096855 4.41706,0 0,14.046285 -2.49174,0 z m 6.64972,-3.9751 0,-15.827333 2.49174,0 0,15.414526 0,0.13764 0.0082,0.137725 0.0082,0.12954 0.02427,0.12954 0.01609,0.121355 0.03246,0.121356 0.03217,0.113453 0.04064,0.113171 0.04036,0.113454 0.04854,0.105268 0.04854,0.09709 0.06463,0.09708 0.05673,0.09737 0.07281,0.0889 0.07281,0.08918 0.08072,0.081 0.081,0.08072 0.0889,0.0731 0.08918,0.06463 0.0889,0.06491 0.09708,0.05645 0.09708,0.05673 0.09708,0.04854 0.105268,0.04064 0.113172,0.04036 0.105268,0.03246 0.113172,0.03246 0.121355,0.01609 0.121356,0.02427 0.121355,0.0082 0.129258,0.0082 0.12954,0 0,2.234353 -0.299438,-0.0082 -0.290971,-0.0079 -0.275167,-0.02455 -0.266982,-0.02427 -0.258798,-0.04036 -0.250895,-0.04854 -0.242711,-0.04854 -0.234527,-0.06491 -0.21844,-0.07281 -0.21844,-0.07281 -0.202353,-0.08918 -0.194169,-0.09708 -0.1778,-0.105269 -0.178082,-0.113171 -0.161714,-0.113454 -0.161713,-0.12954 -0.145627,-0.137724 -0.137724,-0.145627 -0.129258,-0.153811 -0.113453,-0.161996 -0.113171,-0.169897 -0.09708,-0.178083 -0.0889,-0.186266 -0.081,-0.194451 -0.07281,-0.202354 -0.05673,-0.210537 -0.05644,-0.21844 -0.04064,-0.226625 -0.03217,-0.234809 -0.02427,-0.242993 -0.01637,-0.25908 0,-0.25908 z m 19.537115,-2.809184 -10.112304,0 0,0.307651 0.01609,0.291451 0.03246,0.291451 0.03246,0.275251 0.04854,0.26718 0.05644,0.259051 0.07281,0.250981 0.081,0.24288 0.0889,0.234668 0.09709,0.218722 0.113453,0.21844 0.121356,0.202636 0.129257,0.202353 0.145627,0.186267 0.145627,0.178082 0.169898,0.169898 0.145626,0.137724 0.161714,0.12954 0.161995,0.121356 0.169898,0.113453 0.169898,0.105269 0.1778,0.09708 0.186266,0.081 0.185985,0.08072 0.194169,0.06491 0.202353,0.05673 0.202071,0.05673 0.210256,0.04036 0.21844,0.02427 0.21844,0.02427 0.226624,0.01609 0.234527,0 0.266982,0 0.258798,-0.01609 0.250895,-0.02427 0.242711,-0.03246 0.242712,-0.04854 0.242711,-0.04854 0.226624,-0.06463 0.226342,-0.0731 0.21844,-0.08072 0.21844,-0.09737 0.210256,-0.09708 0.202353,-0.113453 0.194169,-0.121356 0.194169,-0.12954 0.185984,-0.145627 0.185985,-0.145626 1.043658,1.789006 -0.07281,0.07281 -0.08071,0.0731 -0.081,0.07281 -0.0889,0.06463 -0.194169,0.12954 -0.210538,0.12954 -0.234526,0.121356 -0.250614,0.121638 -0.266982,0.105269 -0.291253,0.113171 -0.186267,0.06491 -0.194169,0.06463 -0.185984,0.05673 -0.202354,0.05673 -0.193886,0.04854 -0.202354,0.04036 -0.202353,0.04064 -0.210255,0.04036 -0.210256,0.03245 -0.210538,0.02427 -0.210255,0.02427 -0.21844,0.02427 -0.226343,0.0082 -0.21844,0.01609 -0.226624,0 -0.226624,0.0082 -0.331612,-0.0082 -0.315524,-0.02427 -0.315524,-0.03246 -0.315525,-0.04854 -0.299155,-0.06463 -0.299438,-0.07281 -0.291254,-0.09737 -0.283068,-0.105269 -0.275167,-0.121355 -0.274885,-0.12954 -0.25908,-0.145627 -0.258797,-0.161996 -0.258798,-0.178082 -0.242711,-0.186266 -0.242711,-0.210538 -0.234527,-0.21844 -0.12954,-0.121356 -0.121356,-0.12954 -0.113171,-0.12954 -0.121355,-0.12954 -0.105269,-0.137724 -0.105269,-0.137725 -0.104987,-0.145626 -0.09708,-0.137725 -0.09709,-0.145626 -0.08918,-0.153812 -0.0889,-0.153811 -0.08071,-0.153811 -0.081,-0.153811 -0.07281,-0.161995 -0.06463,-0.161996 -0.07281,-0.161713 -0.05673,-0.17018 -0.06463,-0.169898 -0.04854,-0.17018 -0.04854,-0.177998 -0.04854,-0.17811 -0.04064,-0.178111 -0.04036,-0.18621 -0.03245,-0.186182 -0.03217,-0.18621 -0.02427,-0.19431 -0.02427,-0.19431 -0.01637,-0.194282 -0.01609,-0.20241 -0.0082,-0.202381 -0.0079,-0.20241 0,-0.210481 0,-0.21861 0.0079,-0.210481 0.0082,-0.210481 0.01609,-0.21051 0.01637,-0.202381 0.02427,-0.20241 0.02427,-0.20241 0.03217,-0.194282 0.03245,-0.19431 0.04036,-0.19431 0.04854,-0.186182 0.04064,-0.18621 0.05644,-0.18621 0.05673,-0.178111 0.05673,-0.17811 0.06463,-0.17811 0.06463,-0.170011 0.07281,-0.170011 0.081,-0.17001 0.081,-0.161911 0.08071,-0.161939 0.0889,-0.161911 0.09708,-0.153811 0.09708,-0.15384 0.09708,-0.153811 0.105269,-0.145739 0.113171,-0.145712 0.113453,-0.145739 0.113171,-0.137612 0.121356,-0.13764 0.12954,-0.137639 0.129257,-0.129512 0.234809,-0.234781 0.242429,-0.210509 0.250896,-0.194282 0.258798,-0.18621 0.25908,-0.170011 0.266982,-0.153839 0.266982,-0.137612 0.274884,-0.12144 0.283069,-0.113341 0.291254,-0.09717 0.291253,-0.08094 0.299438,-0.06477 0.299438,-0.04857 0.315242,-0.0405 0.307622,-0.01617 0.323427,-0.0081 0.372251,0.0081 0.355882,0.01617 0.34798,0.0324 0.339796,0.04857 0.331611,0.05667 0.323709,0.07287 0.30734,0.08904 0.299155,0.09717 0.291253,0.113341 0.275167,0.129512 0.137442,0.06477 0.12954,0.07287 0.12954,0.07287 0.129258,0.07287 0.12954,0.08094 0.121356,0.08907 0.121355,0.08904 0.121356,0.08907 0.113171,0.09714 0.113171,0.09714 0.105269,0.09717 0.113171,0.105241 0.194169,0.202381 0.194169,0.218609 0.169898,0.226681 0.161995,0.226681 0.145627,0.242881 0.137442,0.250952 0.121356,0.25908 0.113171,0.25908 0.09708,0.275251 0.081,0.283351 0.07281,0.291451 0.05645,0.299551 0.04854,0.30765 0.03245,0.315722 0.01609,0.31575 0.0082,0.331922 -0.0082,0.210509 -0.0079,0.202382 -0.01637,0.19431 -0.01609,0.19431 -0.03245,0.186182 -0.03217,0.18621 -0.04064,0.178111 -0.04854,0.17001 z m -6.03504,-5.424226 -0.210255,0 -0.202354,0.0162 -0.194169,0.01617 -0.194168,0.0324 -0.193887,0.04047 -0.178082,0.04047 -0.185985,0.05667 -0.178082,0.06477 -0.169898,0.07287 -0.169898,0.08097 -0.161713,0.08904 -0.161995,0.09717 -0.153529,0.105241 -0.153811,0.11334 -0.145627,0.12144 -0.145627,0.12954 -0.129258,0.129512 -0.121355,0.12954 -0.113453,0.13764 -0.113172,0.145711 -0.09708,0.14574 -0.09708,0.145711 -0.0889,0.153839 -0.07281,0.153812 -0.07281,0.16191 -0.06491,0.170011 -0.06463,0.161939 -0.04854,0.178111 -0.04036,0.17811 -0.04064,0.178111 -0.02427,0.186182 -0.02427,0.18621 7.766473,0 0,-0.18621 -0.0082,-0.186182 -0.02427,-0.178111 -0.02427,-0.170039 -0.03217,-0.17001 -0.04064,-0.170011 -0.04854,-0.161911 -0.05644,-0.161911 -0.05673,-0.153839 -0.07281,-0.153811 -0.081,-0.145712 -0.08072,-0.145739 -0.09708,-0.13764 -0.09708,-0.137612 -0.105269,-0.12954 -0.113171,-0.12954 -0.137724,-0.12954 -0.137443,-0.129511 -0.137442,-0.113341 -0.153811,-0.113368 -0.153529,-0.09714 -0.161995,-0.08904 -0.169898,-0.08097 -0.169898,-0.07287 -0.1778,-0.06477 -0.186267,-0.05667 -0.194168,-0.04857 -0.194169,-0.04047 -0.202071,-0.0324 -0.210256,-0.01617 -0.210538,-0.0162 -0.21844,0 z m 7.936371,11.366641 0.881663,-2.355991 0.258797,0.161995 0.250896,0.153812 0.242711,0.145626 0.234527,0.137725 0.234809,0.121355 0.226342,0.105269 0.21844,0.105269 0.210255,0.08918 0.210538,0.081 0.194169,0.07281 0.194169,0.05673 0.194169,0.04854 0.1778,0.04036 0.178082,0.02427 0.161713,0.01609 0.169898,0 0.137442,0 0.137725,0 0.129258,-0.01609 0.12954,-0.0082 0.121355,-0.01609 0.121356,-0.02427 0.113171,-0.02427 0.113453,-0.03246 0.104987,-0.03246 0.105269,-0.03217 0.09708,-0.04064 0.0889,-0.04036 0.0889,-0.04854 0.081,-0.05673 0.081,-0.04854 0.07281,-0.06491 0.07281,-0.05644 0.06463,-0.0731 0.05673,-0.06463 0.05644,-0.07281 0.05673,-0.081 0.04036,-0.081 0.04854,-0.08918 0.04064,-0.0889 0.03217,-0.08918 0.02427,-0.09708 0.02427,-0.09708 0.02427,-0.105269 0.01637,-0.113453 0.0079,-0.113171 0.0082,-0.113453 0,-0.121356 0,-0.081 -0.0082,-0.08918 -0.0079,-0.08072 -0.01637,-0.08918 -0.01609,-0.081 -0.02427,-0.081 -0.03246,-0.081 -0.03217,-0.08086 -0.03246,-0.08094 -0.04854,-0.08097 -0.04036,-0.08094 -0.04854,-0.08097 -0.113453,-0.153811 -0.137442,-0.145739 -0.145627,-0.145712 -0.161713,-0.145739 -0.185985,-0.145711 -0.202353,-0.13764 -0.210256,-0.12954 -0.242711,-0.13764 -0.250895,-0.129512 -0.266983,-0.12144 -0.412608,-0.19431 -0.380154,-0.17811 -0.339795,-0.170011 -0.30734,-0.153811 -0.266983,-0.13764 -0.234526,-0.13764 -0.202354,-0.12144 -0.169897,-0.105241 -0.145627,-0.10524 -0.145627,-0.105241 -0.12954,-0.105241 -0.137442,-0.113368 -0.121355,-0.121412 -0.121356,-0.121441 -0.121356,-0.12144 -0.113171,-0.12954 -0.105269,-0.12954 -0.09708,-0.12954 -0.09708,-0.137611 -0.08072,-0.13764 -0.081,-0.13764 -0.07281,-0.137611 -0.06463,-0.14574 -0.05673,-0.145711 -0.04854,-0.14574 -0.04854,-0.153811 -0.03246,-0.14574 -0.03217,-0.16191 -0.02427,-0.153812 -0.01637,-0.161939 -0.0079,-0.161911 0,-0.17001 0,-0.210482 0.01609,-0.210509 0.02427,-0.202382 0.03245,-0.19431 0.04854,-0.18621 0.04854,-0.18621 0.06463,-0.178111 0.07281,-0.17001 0.0889,-0.170011 0.08918,-0.153811 0.104987,-0.153811 0.113453,-0.153839 0.121073,-0.137612 0.137725,-0.13764 0.137442,-0.12954 0.153811,-0.12954 0.161713,-0.11334 0.161714,-0.113341 0.178082,-0.09714 0.178082,-0.09717 0.185985,-0.08904 0.185984,-0.07287 0.194169,-0.07287 0.210256,-0.06474 0.202353,-0.05667 0.21844,-0.0486 0.21844,-0.04047 0.226624,-0.04047 0.234527,-0.0243 0.242711,-0.0162 0.242711,-0.01617 0.250614,0 0.194168,0 0.202354,0.01617 0.202353,0.0162 0.21844,0.0243 0.21844,0.04047 0.226342,0.04047 0.226625,0.0486 0.242711,0.05667 0.242711,0.06474 0.250613,0.07287 0.25908,0.07287 0.258798,0.08904 0.274885,0.09717 0.275166,0.09714 0.283069,0.113341 0.291253,0.11334 -0.711764,2.315436 -0.186267,-0.14574 -0.185984,-0.137611 -0.185985,-0.12144 -0.185984,-0.113341 -0.178082,-0.105269 -0.185985,-0.09714 -0.186266,-0.08904 -0.185985,-0.08097 -0.185984,-0.06477 -0.186267,-0.06477 -0.185984,-0.04857 -0.185985,-0.04047 -0.185984,-0.0324 -0.186267,-0.02427 -0.185984,-0.0162 -0.185985,0 -0.226624,0 -0.202354,0.0243 -0.202071,0.03237 -0.194169,0.04857 -0.185984,0.05667 -0.169898,0.07287 -0.169898,0.08904 -0.153811,0.09717 -0.07281,0.04857 -0.07281,0.05667 -0.06463,0.05667 -0.05673,0.05667 -0.05673,0.06477 -0.04854,0.06477 -0.04854,0.05667 -0.04036,0.07287 -0.03245,0.06474 -0.03217,0.06477 -0.02427,0.07287 -0.02427,0.07287 -0.01637,0.07287 -0.0079,0.08094 -0.0082,0.07287 0,0.08097 0,0.17001 0.02427,0.161911 0.02427,0.153811 0.04036,0.15384 0.05673,0.145711 0.06463,0.13764 0.081,0.13764 0.0889,0.129511 0.09708,0.121441 0.121356,0.12144 0.121355,0.11334 0.137725,0.113341 0.153529,0.105269 0.161995,0.09714 0.169898,0.09714 0.185985,0.08907 1.779693,0.809582 0.202353,0.09714 0.194169,0.09717 0.185985,0.09714 0.185984,0.09714 0.169898,0.09717 0.169898,0.105241 0.153811,0.105241 0.153529,0.10524 0.145626,0.105241 0.137725,0.11334 0.137442,0.105269 0.121355,0.113341 0.121356,0.11334 0.105269,0.12144 0.104987,0.113341 0.09708,0.12144 0.08918,0.12144 0.0889,0.12144 0.081,0.129512 0.07281,0.13764 0.06463,0.13764 0.05673,0.137611 0.05644,0.14574 0.04854,0.145711 0.04854,0.15384 0.03245,0.153811 0.03217,0.161911 0.03246,0.161939 0.01609,0.162023 0.01637,0.169898 0.0079,0.178082 0,0.178083 0,0.234809 -0.01609,0.226624 -0.02427,0.218722 -0.04036,0.210538 -0.04854,0.210538 -0.05673,0.202353 -0.06463,0.194169 -0.07281,0.186267 -0.0889,0.186266 -0.09708,0.169898 -0.113453,0.17018 -0.121356,0.161713 -0.129258,0.161996 -0.137724,0.145627 -0.145627,0.145909 -0.161713,0.137442 -0.169898,0.12954 -0.178082,0.121638 -0.185985,0.105268 -0.194169,0.104987 -0.202071,0.09737 -0.210537,0.0889 -0.210256,0.081 -0.226624,0.07281 -0.234527,0.05673 -0.242711,0.05673 -0.250614,0.04854 -0.25908,0.03246 -0.258797,0.03217 -0.275167,0.02455 -0.283069,0.0079 -0.291253,0.0082 -0.274885,-0.0082 -0.275166,-0.0079 -0.266983,-0.02455 -0.275166,-0.03217 -0.266982,-0.04064 -0.266983,-0.04036 -0.258797,-0.05673 -0.258798,-0.06463 -0.266982,-0.0731 -0.250896,-0.08071 -0.258798,-0.09737 -0.250895,-0.09708 -0.250614,-0.105268 -0.250895,-0.121356 -0.250614,-0.121356 -0.242711,-0.137724 z m 24.391057,1.109133 -9.918419,-14.046369 0,13.779105 -2.491458,0 0,-19.211459 1.05156,0 9.651157,13.285357 0,-13.285357 2.49174,0 0,19.478723 -0.78458,0 z m 16.34151,-7.051548 -10.12049,0 0.008,0.307651 0.0161,0.291451 0.0243,0.291451 0.0404,0.275251 0.0485,0.26718 0.0567,0.259051 0.0646,0.250981 0.081,0.24288 0.0889,0.234668 0.10527,0.218722 0.10527,0.21844 0.12135,0.202636 0.13744,0.202353 0.13745,0.186267 0.15381,0.178082 0.16171,0.169898 0.15381,0.137724 0.16172,0.12954 0.16171,0.121356 0.16199,0.113453 0.1778,0.105269 0.17809,0.09708 0.17808,0.081 0.19389,0.08072 0.19416,0.06491 0.20236,0.05673 0.20235,0.05673 0.21026,0.04036 0.21844,0.02427 0.21844,0.02427 0.22634,0.01609 0.23481,0 0.2588,0 0.25879,-0.01609 0.2509,-0.02427 0.25089,-0.03246 0.24272,-0.04854 0.23452,-0.04854 0.23453,-0.06463 0.22662,-0.0731 0.21844,-0.08072 0.21026,-0.09737 0.21025,-0.09708 0.21054,-0.113453 0.19389,-0.121356 0.19417,-0.12954 0.18626,-0.145627 0.1778,-0.145626 1.05185,1.789006 -0.081,0.07281 -0.0728,0.0731 -0.0889,0.07281 -0.0889,0.06463 -0.19417,0.12954 -0.21054,0.12954 -0.22634,0.121356 -0.2509,0.121638 -0.27517,0.105269 -0.28306,0.113171 -0.18599,0.06491 -0.19417,0.06463 -0.19417,0.05673 -0.19417,0.05673 -0.20235,0.04854 -0.19417,0.04036 -0.21025,0.04064 -0.20207,0.04036 -0.21054,0.03245 -0.21026,0.02427 -0.21844,0.02427 -0.21844,0.02427 -0.21844,0.0082 -0.22662,0.01609 -0.21816,0 -0.23481,0.0082 -0.32343,-0.0082 -0.3237,-0.02427 -0.31553,-0.03246 -0.30734,-0.04854 -0.29944,-0.06463 -0.29915,-0.07281 -0.29126,-0.09737 -0.28335,-0.105269 -0.27488,-0.121355 -0.27517,-0.12954 -0.26698,-0.145627 -0.2588,-0.161996 -0.25089,-0.178082 -0.25062,-0.186266 -0.23481,-0.210538 -0.23452,-0.21844 -0.12926,-0.121356 -0.12136,-0.12954 -0.12135,-0.12954 -0.11345,-0.12954 -0.11318,-0.137724 -0.10526,-0.137725 -0.0971,-0.145626 -0.0971,-0.137725 -0.0971,-0.145626 -0.0889,-0.153812 -0.0889,-0.153811 -0.081,-0.153811 -0.081,-0.153811 -0.0728,-0.161995 -0.0728,-0.161996 -0.0646,-0.161713 -0.0646,-0.17018 -0.0567,-0.169898 -0.0564,-0.17018 -0.0485,-0.177998 -0.0485,-0.17811 -0.0406,-0.178111 -0.0404,-0.18621 -0.0325,-0.186182 -0.0322,-0.18621 -0.0243,-0.19431 -0.0243,-0.19431 -0.0164,-0.194282 -0.008,-0.20241 -0.0164,-0.202381 0,-0.20241 -0.008,-0.210481 0.008,-0.21861 0,-0.210481 0.0164,-0.210481 0.008,-0.21051 0.0243,-0.202381 0.0164,-0.20241 0.0322,-0.20241 0.0325,-0.194282 0.0324,-0.19431 0.0404,-0.19431 0.0404,-0.186182 0.0485,-0.18621 0.0485,-0.18621 0.0567,-0.178111 0.0646,-0.17811 0.0646,-0.17811 0.0649,-0.170011 0.0728,-0.170011 0.0728,-0.17001 0.0807,-0.161911 0.0892,-0.161939 0.0889,-0.161911 0.0889,-0.153811 0.0971,-0.15384 0.10527,-0.153811 0.10527,-0.145739 0.10498,-0.145712 0.11346,-0.145739 0.12135,-0.137612 0.12136,-0.13764 0.12107,-0.137639 0.12954,-0.129512 0.24271,-0.234781 0.24271,-0.210509 0.2509,-0.194282 0.25061,-0.18621 0.25908,-0.170011 0.2667,-0.153839 0.27517,-0.137612 0.27516,-0.12144 0.28307,-0.113341 0.28307,-0.09717 0.29126,-0.08094 0.29943,-0.06477 0.30734,-0.04857 0.30734,-0.0405 0.31553,-0.01617 0.32371,-0.0081 0.36406,0.0081 0.36407,0.01617 0.3477,0.0324 0.33979,0.04857 0.3319,0.05667 0.31524,0.07287 0.31552,0.08904 0.29944,0.09717 0.28307,0.113341 0.28335,0.129512 0.13744,0.06477 0.12926,0.07287 0.12954,0.07287 0.12954,0.07287 0.12136,0.08094 0.12925,0.08907 0.12136,0.08904 0.11345,0.08907 0.11317,0.09714 0.11318,0.09714 0.11345,0.09717 0.10499,0.105241 0.20235,0.202381 0.18598,0.218609 0.17809,0.226681 0.16171,0.226681 0.14563,0.242881 0.13744,0.250952 0.12135,0.25908 0.10527,0.25908 0.0971,0.275251 0.0889,0.283351 0.0649,0.291451 0.0646,0.299551 0.0404,0.30765 0.0325,0.315722 0.0243,0.31575 0,0.331922 0,0.210509 -0.008,0.202382 -0.0161,0.19431 -0.0243,0.19431 -0.0243,0.186182 -0.0325,0.18621 -0.0404,0.178111 -0.0485,0.17001 z m -6.03504,-5.424226 -0.21025,0 -0.20236,0.0162 -0.19417,0.01617 -0.19416,0.0324 -0.19417,0.04047 -0.18599,0.04047 -0.17808,0.05667 -0.1778,0.06477 -0.1699,0.07287 -0.1699,0.08097 -0.16199,0.08904 -0.16171,0.09717 -0.15382,0.105241 -0.15352,0.11334 -0.14563,0.12144 -0.14563,0.12954 -0.12954,0.129512 -0.12135,0.12954 -0.12136,0.13764 -0.10499,0.145711 -0.10526,0.14574 -0.0889,0.145711 -0.0892,0.153839 -0.0807,0.153812 -0.0728,0.16191 -0.0649,0.170011 -0.0564,0.161939 -0.0485,0.178111 -0.0485,0.17811 -0.0324,0.178111 -0.0325,0.186182 -0.0161,0.18621 7.76619,0 0,-0.18621 -0.0161,-0.186182 -0.0161,-0.178111 -0.0243,-0.170039 -0.0324,-0.17001 -0.0404,-0.170011 -0.0485,-0.161911 -0.0567,-0.161911 -0.0646,-0.153839 -0.0649,-0.153811 -0.0807,-0.145712 -0.081,-0.145739 -0.0971,-0.13764 -0.0971,-0.137612 -0.10499,-0.12954 -0.12135,-0.12954 -0.12954,-0.12954 -0.13745,-0.129511 -0.14562,-0.113341 -0.14563,-0.113368 -0.16199,-0.09714 -0.15353,-0.08904 -0.1699,-0.08097 -0.1699,-0.07287 -0.18598,-0.06477 -0.17809,-0.05667 -0.19416,-0.04857 -0.19417,-0.04047 -0.20236,-0.0324 -0.21025,-0.01617 -0.21026,-0.0162 -0.21844,0 z m 9.74034,0.12954 -1.62617,0 0,-1.967315 1.62617,0 0,-2.938808 2.49146,-0.955294 0,3.894102 3.8591,0 0,1.967315 -3.8591,0 0,6.97865 0,0.218581 0.008,0.210481 0.0161,0.19431 0.0164,0.194226 0.0161,0.186266 0.0243,0.178083 0.0325,0.17018 0.0404,0.161713 0.0324,0.153811 0.0485,0.145909 0.0485,0.137442 0.0564,0.12954 0.0567,0.121638 0.0646,0.113171 0.0649,0.105269 0.0728,0.09708 0.0807,0.08918 0.081,0.0889 0.0889,0.07309 0.0971,0.07281 0.0971,0.07281 0.10527,0.05673 0.11317,0.05673 0.11317,0.04854 0.12136,0.04854 0.12954,0.03245 0.13744,0.03217 0.13773,0.03246 0.14562,0.01609 0.15353,0.01637 0.15381,0.0079 0.16172,0 0.24271,0 0.24271,-0.02427 0.24271,-0.04036 0.24271,-0.05673 0.2509,-0.06463 0.25061,-0.081 0.2509,-0.105269 0.25879,-0.113454 0.36407,2.193996 -0.38834,0.08918 -0.40442,0.081 -0.40443,0.07281 -0.42079,0.04854 -0.4287,0.04854 -0.43688,0.03245 -0.45296,0.01609 -0.45325,0.0082 -0.21026,-0.0082 -0.20235,-0.01609 -0.19417,-0.02427 -0.19389,-0.03245 -0.19416,-0.04036 -0.18627,-0.05673 -0.1778,-0.06491 -0.17808,-0.07281 -0.17809,-0.081 -0.16989,-0.0889 -0.16172,-0.105269 -0.16171,-0.113453 -0.16171,-0.113171 -0.15381,-0.137725 -0.14563,-0.137724 -0.14563,-0.145627 -0.13744,-0.161996 -0.12954,-0.161995 -0.12136,-0.169898 -0.11317,-0.169898 -0.10527,-0.178082 -0.0889,-0.186267 -0.0892,-0.186266 -0.0728,-0.194169 -0.0728,-0.194451 -0.0564,-0.202354 -0.0485,-0.210537 -0.0406,-0.210538 -0.0322,-0.21844 -0.0161,-0.226907 -0.0164,-0.226624 -0.008,-0.234809 0,-7.97433 z"
     style="fill:#000000;fill-opacity:1;fill-rule:evenodd;stroke:none" />
</svg>
